<svg version="1.2" xmlns="http://www.w3.org/2000/svg" viewBox="0 0 38 30" width="38" height="30"><style>.a{fill:#2a5ea4}</style><path class="a" d="m1.4 26.1h35.2c0.8 0 1.4 0.6 1.4 1.4v1c0 0.8-0.6 1.5-1.4 1.5h-35.2c-0.8 0-1.4-0.7-1.4-1.5v-1c0-0.8 0.6-1.4 1.4-1.4z"/><path class="a" d="m1.4 13h35.2c0.8 0 1.4 0.7 1.4 1.5v1c0 0.8-0.6 1.5-1.4 1.5h-35.2c-0.8 0-1.4-0.7-1.4-1.5v-1c0-0.8 0.6-1.5 1.4-1.5z"/><path class="a" d="m1.4 0h35.2c0.8 0 1.4 0.6 1.4 1.5v1c0 0.8-0.6 1.4-1.4 1.4h-35.2c-0.8 0-1.4-0.6-1.4-1.4v-1c0-0.9 0.6-1.5 1.4-1.5z"/></svg>